<?xml version="1.0" standalone="no"?><!DOCTYPE svg PUBLIC "-//W3C//DTD SVG 1.1//EN" "http://www.w3.org/Graphics/SVG/1.1/DTD/svg11.dtd"><svg t="1666153129240" class="icon" viewBox="0 0 1024 1024" version="1.1" xmlns="http://www.w3.org/2000/svg" p-id="2719" xmlns:xlink="http://www.w3.org/1999/xlink" width="200" height="200"><path d="M872 424H152v344c0 22.4 17.6 40 40 40h640c22.4 0 40-17.6 40-40V424z" fill="#FFFFFF" p-id="2720"></path><path d="M576 296m-80 0a80 80 0 1 0 160 0 80 80 0 1 0-160 0Z" fill="#6F4986" p-id="2721"></path><path d="M576 400c-57.6 0-104-46.4-104-104s46.4-104 104-104 104 46.4 104 104-46.4 104-104 104z m0-160c-31.2 0-56 24.8-56 56s24.8 56 56 56 56-24.8 56-56-24.8-56-56-56z" fill="#3F4A54" p-id="2722"></path><path d="M496 296c0 44-36 80-80 80-24 0-46.4-11.2-60.8-28-12-13.6-19.2-32-19.2-52 0-44 36-80 80-80s80 36 80 80z" fill="#B379DB" p-id="2723"></path><path d="M391.2 301.6c-1.6 0-3.2 0-4.8-0.8-1.6 0-3.2-0.8-4.8-1.6-1.6-0.8-3.2-1.6-4-2.4-1.6-0.8-2.4-1.6-4-3.2-0.8-0.8-2.4-2.4-3.2-4-0.8-1.6-1.6-2.4-2.4-4-0.8-1.6-0.8-3.2-1.6-4.8 0-1.6-0.8-3.2-0.8-4.8 0-6.4 2.4-12.8 7.2-16.8 0.8-0.8 2.4-2.4 4-3.2 1.6-0.8 2.4-1.6 4-2.4 1.6-0.8 3.2-0.8 4.8-1.6 8-1.6 16 0.8 21.6 6.4 4.8 4 7.2 10.4 7.2 16.8 0 1.6 0 3.2-0.8 4.8 0 1.6-0.8 3.2-1.6 4.8-0.8 1.6-1.6 3.2-2.4 4-0.8 1.6-1.6 2.4-3.2 4-2.4 5.6-8.8 8.8-15.2 8.8zM551.2 301.6c-6.4 0-12.8-2.4-16.8-7.2-4.8-4.8-7.2-10.4-7.2-16.8s2.4-12.8 7.2-16.8c5.6-5.6 13.6-8 21.6-6.4 1.6 0 3.2 0.8 4.8 1.6 1.6 0.8 3.2 1.6 4 2.4 1.6 0.8 2.4 1.6 4 3.2 4.8 4.8 7.2 10.4 7.2 16.8s-2.4 12.8-7.2 16.8c-0.8 0.8-2.4 2.4-4 3.2-1.6 0.8-2.4 1.6-4 2.4-1.6 0.8-3.2 0.8-4.8 1.6s-3.2-0.8-4.8-0.8z" fill="#FFFFFF" p-id="2724"></path><path d="M416 400c-13.6 0-24-10.4-24-24s10.4-24 24-24c31.2 0 56-24.8 56-56s-24.8-56-56-56-56 24.8-56 56c0 13.6-10.4 24-24 24s-24-10.4-24-24c0-57.6 46.4-104 104-104s104 46.4 104 104-46.4 104-104 104z" fill="#3F4A54" p-id="2725"></path><path d="M824 640H200c-26.4 0-48-21.6-48-48s21.6-48 48-48h624c26.4 0 48 21.6 48 48s-21.6 48-48 48z" fill="#FFDD7D" p-id="2726"></path><path d="M872 616c-13.6 0-24-10.4-24-24s-10.4-24-24-24-24-10.4-24-24 10.4-24 24-24c40 0 72 32 72 72 0 13.6-10.4 24-24 24zM432 664H152c-13.6 0-24-10.4-24-24s10.4-24 24-24h280c13.6 0 24 10.4 24 24s-10.4 24-24 24z" fill="#3F4A54" p-id="2727"></path><path d="M824 664c-13.6 0-24-10.4-24-24s10.4-24 24-24 24-10.4 24-24 10.4-24 24-24 24 10.4 24 24c0 40-32 72-72 72z" fill="#3F4A54" p-id="2728"></path><path d="M824 808H200c-26.4 0-48-21.6-48-48s21.6-48 48-48h624c26.4 0 48 21.6 48 48s-21.6 48-48 48z" fill="#FFDD7D" p-id="2729"></path><path d="M872 784c-13.6 0-24-10.4-24-24s-10.4-24-24-24-24-10.4-24-24 10.4-24 24-24c40 0 72 32 72 72 0 13.6-10.4 24-24 24z" fill="#3F4A54" p-id="2730"></path><path d="M824 832H152c-13.6 0-24-10.4-24-24s10.4-24 24-24h672c13.6 0 24-10.4 24-24s10.4-24 24-24 24 10.4 24 24c0 40-32 72-72 72z" fill="#3F4A54" p-id="2731"></path><path d="M824 472h-32c-22.4 0-40 17.6-40 40v88c0 22.4-17.6 40-40 40s-40-17.6-40-40V512c0-22.4-17.6-40-40-40s-40 17.6-40 40v184c0 22.4-17.6 40-40 40s-40-17.6-40-40V512c0-22.4-17.6-40-40-40H200c-26.4 0-48-21.6-48-48s21.6-48 48-48h624c26.4 0 48 21.6 48 48s-21.6 48-48 48z" fill="#FFA6B5" p-id="2732"></path><path d="M512 536c-13.6 0-24-10.4-24-24 0-8.8-7.2-16-16-16h-76.8c-13.6 0-24-10.4-24-24s10.4-24 24-24H472c35.2 0 64 28.8 64 64 0 13.6-10.4 24-24 24z" fill="#3F4A54" p-id="2733"></path><path d="M552 760c-35.2 0-64-28.8-64-64V592c0-13.6 10.4-24 24-24s24 10.4 24 24v104c0 8.8 7.2 16 16 16s16-7.2 16-16V512c0-35.2 28.8-64 64-64s64 28.8 64 64c0 13.6-10.4 24-24 24s-24-10.4-24-24c0-8.8-7.2-16-16-16s-16 7.2-16 16v184c0 35.2-28.8 64-64 64z" fill="#3F4A54" p-id="2734"></path><path d="M712 664c-35.2 0-64-28.8-64-64v-8c0-13.6 10.4-24 24-24s24 10.4 24 24v8c0 8.8 7.2 16 16 16s16-7.2 16-16V512c0-35.2 28.8-64 64-64h32c13.6 0 24-10.4 24-24s-10.4-24-24-24H200c-13.6 0-24 10.4-24 24s10.4 24 24 24h195.2c13.6 0 24 10.4 24 24s-10.4 24-24 24H200c-40 0-72-32-72-72s32-72 72-72h624c40 0 72 32 72 72s-32 72-72 72h-32c-8.8 0-16 7.2-16 16v88c0 35.2-28.8 64-64 64z" fill="#3F4A54" p-id="2735"></path></svg>